<svg xmlns="http://www.w3.org/2000/svg" viewBox="0 0 91.17 67.65"><defs><style>.cls-1{isolation:isolate;}.cls-14,.cls-2{fill:#3e5110;}.cls-13,.cls-3{fill:#506218;}.cls-12,.cls-4{fill:#617704;}.cls-15,.cls-5{fill:#455111;}.cls-16,.cls-6{fill:#476005;}.cls-7{fill:#748708;}.cls-8{fill:#748220;}.cls-21,.cls-9{fill:#536604;}.cls-10{fill:#7f8710;}.cls-11{fill:#516b00;}.cls-12,.cls-13,.cls-14,.cls-15,.cls-16,.cls-21,.cls-22{mix-blend-mode:overlay;}.cls-13{opacity:0.5;}.cls-14,.cls-15{opacity:0.3;}.cls-16{opacity:0.6;}.cls-17{fill:#8c9914;}.cls-18{fill:#72840b;}.cls-19{fill:#75770e;}.cls-20{fill:#595907;}.cls-21{opacity:0.8;}.cls-22{fill:#68701a;}.cls-23{fill:none;stroke:#000;stroke-miterlimit:10;}</style></defs><g class="cls-1"><g id="Layer_1" data-name="Layer 1"><polyline class="cls-2" points="58.58 53.42 57.26 57.5 56.54 61.7 56.08 65.06 55.03 66.24 52.53 67.36 49.83 67.36 48.13 66.57 47.2 66.11 46.74 62.36 46.28 58.16 45.06 54.28 48.98 55.2 52.99 55.06 55.95 54.74"/><polyline class="cls-3" points="58.36 27.48 57.18 32.94 56.58 37.81 56.58 41.03 56.85 43.92 57.11 46.42 57.97 49.64 58.62 52.6 56.58 53.91 53.56 54.77 50.21 55.1 46.92 54.37 44.84 53.65 45.41 49.25 46.06 45.3 46.46 41.88 46.46 38.27 46.13 34.12 44.84 29.59 44.49 27.81 47.25 28.93 50.08 29.65 52.97 29.32 55.73 28.6"/><polyline class="cls-4" points="58.05 26.69 56.87 23.54 56.02 19.2 55.49 14.93 55.88 10.98 56.48 7.76 57.4 4.27 57.33 3.48 55.09 4.41 52.79 5 49.77 5.13 47.53 4.54 45.89 4.01 45.06 4.01 46.41 7.69 47.01 11.77 47.14 15.09 47.01 18.21 46.55 21.24 45.89 24.92 45.06 27.35 47.53 29 50.49 29.32 54.24 28.8"/><polyline class="cls-5" points="35.9 57.06 34.38 58.97 31.43 59.23 29.39 58.44 27.61 57.65 27.61 55.02 27.09 52 26.16 48.64 25.11 45.49 28.53 47.46 31.1 48.18 33.33 47.72 34.91 47.2 36.75 46.34 37.8 45.81 36.49 50.35 35.9 53.9"/><polyline class="cls-6" points="37.8 45.63 36.82 42.01 36.42 38.07 36.42 33.4 36.42 30.11 37.11 27.16 37.8 23.47 35.83 25.38 32.61 26.1 29.45 25.71 27.41 24.72 25.77 23.47 26.82 26.63 27.55 30.7 27.74 34.55 27.74 38.4 27.09 41.62 26.23 43.33 25.11 45.23 28.2 47.47 31.46 48"/><polyline class="cls-7" points="57 2.76 55.42 0.92 52.66 0.59 50.36 0.59 47.86 1.18 46.41 2.1 45.69 3.09 46.09 3.75 48.26 4.41 50.49 4.8 52.99 4.8 55.82 3.75"/><polyline class="cls-4" points="37.31 23.52 36.86 21.75 33.92 20.8 32.09 20.59 29.76 20.71 27.35 21.49 26.21 22.22 26.1 23.13 28.17 24.7 29.54 25.39 32.42 25.73 35.31 25.34"/><polyline class="cls-8" points="63.77 21.43 64.23 17.62 65.42 13.54 67.92 9.21 70.28 6.51 73.31 3.48 73.31 7.63 73.31 11.18 72.19 15.25 71.27 17.55 66.34 21.11"/><polyline class="cls-9" points="64.3 24.85 66.8 27.48 71.6 29 76.66 28.67 80.14 28.14 84.09 26.63 87.31 26.3 84.02 23.74 80.14 22.68 75.81 21.43 69.03 22.32 65.75 23.47"/><polyline class="cls-10" points="23.07 39.19 23.67 35.73 22.02 30.7 19.52 25.64 15.91 20.97 13.28 18.87 14.99 25.21 15.51 29.92 16.83 33.47 19 37.41 21.04 39.19"/><polyline class="cls-11" points="20.58 43.99 18.93 39.19 15.84 35.44 12.29 31.63 9.99 30.18 7.16 29.39 3.22 29.39 1.57 29.72 4.67 31.69 6.9 34.01 8.08 35.73 10.06 37.94 12.23 40.77 16.04 42.74"/><path class="cls-12" d="M63.19,42.71,62,39.55l-.85-4.34-.53-4.27.4-4,.59-3.22.92-3.48-.07-.79-2.23.92a11.15,11.15,0,0,1-1.51.39C57.8,21,57.6,21,57.22,22a8.28,8.28,0,0,0-.07,3.14c.07,2,.23,4,.39,6.07q.28,3.39.66,6.78c.17,1.5,0,4.15.76,5.47a5.61,5.61,0,0,0,1.18,1" transform="translate(-5.21 -16.01)"/><path class="cls-13" d="M63.57,43.5,62.39,49l-.59,4.87V57l.26,2.89.26,2.5.86,3.22.65,3-2,1.32c-.69.19-2.07,1-2.74.52-1-.71-.78-2.6-.8-3.64,0-2-.18-4.09-.27-6.13l-.55-12a6.3,6.3,0,0,1,.11-1.94c.43-1.62,2-1.73,3.39-2.1" transform="translate(-5.21 -16.01)"/><path class="cls-14" d="M63.79,69.43l-1.31,4.08-.73,4.21-.46,3.35-1,1.18c-.45.21-1.56,1-2,.66s-.06-2.09-.06-2.51V74.62c0-.73-.39-2.87.08-3.44s2.22-.35,2.92-.43" transform="translate(-5.21 -16.01)"/><path class="cls-15" d="M41.11,73.07,39.6,75c-.84.87-1.06-1.37-1.1-1.61-.18-1.1-.34-2.2-.44-3.3a21.31,21.31,0,0,1,0-4.3c.06-.5.07-1.73.42-2.11s1.21-.32,1.62-.45L42,62.35l1-.52L41.7,66.36l-.59,3.56" transform="translate(-5.21 -16.01)"/><path class="cls-16" d="M43,61.64,42,58l-.4-4V46.13l.69-3L43,39.49l-2,1.9c-.93.21-2.9.25-3.63.86s.37,20.67.93,21" transform="translate(-5.21 -16.01)"/><path class="cls-17" d="M55.61,17.27c-1.06.25-4,.48-4,1.92a5,5,0,0,0,4.87.76,2.66,2.66,0,0,0,1.14-.74A1.47,1.47,0,0,0,58,17.93C57.74,17,56.36,17.09,55.61,17.27Z" transform="translate(-5.21 -16.01)"/><path class="cls-18" d="M38.1,37.41l-2.32-.25-2.5.39L32,38.09c-.76,2.71,4.87,2.42,6.34,1.52.4-.24,1.35-1,1.18-1.55S38.56,37.54,38.1,37.41Z" transform="translate(-5.21 -16.01)"/><path class="cls-19" d="M28.29,55.24c-1.74,0-2.26-1.76-2.57-3.19a24.16,24.16,0,0,0-1.89-5.56c-1.08-2.18-.79-4.57-2.15-6.66a5.9,5.9,0,0,1-.77-1.33,1.32,1.32,0,0,1,.2-1.34c1.4.8,2.61,3.22,3.63,4.53l2.49,5.06,1.65,5Z" transform="translate(-5.21 -16.01)"/><path class="cls-10" d="M40.59,46.15" transform="translate(-5.21 -16.01)"/><path class="cls-20" d="M25.79,60l-3.51-.8c-1.5-.34-2.32-2.58-3-3.75a25.59,25.59,0,0,1-2.76-6.21,2.25,2.25,0,0,1-.08-.93.82.82,0,0,1,.59-.67,1.21,1.21,0,0,1,.95.45c.74.69,1.35,1.43,2,2.12q1.47,1.92,2.92,3.85Z" transform="translate(-5.21 -16.01)"/><path class="cls-21" d="M85.6,40.9c-1.82-.3-2.69.21-5.69.13a50,50,0,0,0-6.67-.13c-1.43.13-2.57.24-2.66.65s.79,1.12,5.42,2.77l5.25.2,3.66-.24,4.27-1.4c2.67.13,3.35.07,3.36,0s-.6-.13-1.33-.68a2.15,2.15,0,0,0-.85-.51,2.52,2.52,0,0,0-.64-.05,4.55,4.55,0,0,1-1.19-.21C88.29,41.35,87.39,41.2,85.6,40.9Z" transform="translate(-5.21 -16.01)"/><path class="cls-22" d="M69,37.45a3.5,3.5,0,0,1,.39-1.56,19.85,19.85,0,0,1,1.82-2,24.89,24.89,0,0,0,3.11-4.57,17.23,17.23,0,0,0,1.5-4.12,12.55,12.55,0,0,1,2.72-5.73c0,1.37,0,2.76,0,4.14v3.55L77.4,31.27l-.92,2.3-4.94,3.55" transform="translate(-5.21 -16.01)"/><path class="cls-23" d="M63.18,42.45a2.93,2.93,0,0,0-.34-1.51A26.44,26.44,0,0,1,62,22.64a6.39,6.39,0,0,0,.53-3,3.93,3.93,0,0,0-3-2.91,11.05,11.05,0,0,0-4.4,0,9.07,9.07,0,0,0-2.63.66,3.22,3.22,0,0,0-1.79,1.95,5.3,5.3,0,0,0,.35,2.79,30.66,30.66,0,0,1-.31,18.57,4,4,0,0,0-.27,2.9,3.23,3.23,0,0,0,2.24,1.52,11.43,11.43,0,0,0,4.87.23A9.5,9.5,0,0,0,60,44.7,14.29,14.29,0,0,1,61.43,44C62.19,43.71,63,43.35,63.18,42.45Z" transform="translate(-5.21 -16.01)"/><path class="cls-23" d="M52,17.85c-.27.22-1.07.85-.94,1.44.08.41.56.63.86.75a12.21,12.21,0,0,0,5.25.77c1.88-.19,4.77-.49,5-1.67.16-.81-1-1.67-1.16-1.8a4.58,4.58,0,0,0-2.56-.74,11.82,11.82,0,0,0-3.22.16A6.39,6.39,0,0,0,52,17.85Z" transform="translate(-5.21 -16.01)"/><path class="cls-23" d="M50.63,43.79a.94.94,0,0,0-.63.55c-.18.47.14,1.32.23,1.8.14.68.32,1.34.48,2a37.07,37.07,0,0,1-.45,18.68,7,7,0,0,0-.35,1.68,2.1,2.1,0,0,0,.53,1.6,2.65,2.65,0,0,0,1.64.68c3.7.4,5.57.6,8.38-.08a4.46,4.46,0,0,0,2.46-1.24,3.4,3.4,0,0,0,.83-1.71,4,4,0,0,0-.39-2.06,49.43,49.43,0,0,1-1.77-10,26.1,26.1,0,0,1,1.28-10c.1-.27.67-1.65.26-2a.43.43,0,0,0-.38,0" transform="translate(-5.21 -16.01)"/><path class="cls-23" d="M62.15,70.09c1-.59,1.41-.55,1.56-.41.31.29-.24,1.15-.89,3.23a23.48,23.48,0,0,0-.64,2.43A30.62,30.62,0,0,0,61.73,79c-.12,1.45-.09,1.75-.38,2.24a3.52,3.52,0,0,1-2,1.35,9.36,9.36,0,0,1-4.4.45c-.82-.11-2.71-.64-2.82-1.7s.07-1.9,0-2.84a19,19,0,0,0-1.49-6,1.86,1.86,0,0,1-.25-1.46,1.24,1.24,0,0,1,.57-.6" transform="translate(-5.21 -16.01)"/><path class="cls-23" d="M32.5,37.33a2.35,2.35,0,0,0-.94.72,1.29,1.29,0,0,0-.28,1.11,1.85,1.85,0,0,0,.87,1,10.11,10.11,0,0,0,7.65,1.39,3.53,3.53,0,0,0,2.29-1.17,2.15,2.15,0,0,0,.47-1.62c-.2-.92-1.23-1.37-1.89-1.65a8.25,8.25,0,0,0-3.59-.51A13.62,13.62,0,0,0,32.5,37.33Z" transform="translate(-5.21 -16.01)"/><path class="cls-23" d="M42.46,38.6c.94,1.17.26,3.08,0,4.39-.46,2.57-.69,4.65-.75,5.13a29.67,29.67,0,0,0,.07,6,38.64,38.64,0,0,0,.8,5.68,3.82,3.82,0,0,1,.15,1.06c0,.75-.94,1.12-2.23,1.78a9.94,9.94,0,0,1-2,.79,6.53,6.53,0,0,1-1.71.3,8.52,8.52,0,0,1-2.53-.42c-.65-.17-.11-.06-2.65-1a1.43,1.43,0,0,1-.9-.66,1,1,0,0,1,.09-.77c.57-1.39,1.14-2.75,1.57-4.19a16.09,16.09,0,0,0,.68-4.41,32,32,0,0,0-.38-4.58c-.16-1.25-.39-2.49-.66-3.72-.17-.79-.36-1.57-.57-2.35a7.06,7.06,0,0,1-.43-2.49,1.35,1.35,0,0,1,.17-.63,1.22,1.22,0,0,1,.38-.36" transform="translate(-5.21 -16.01)"/><path class="cls-23" d="M42.42,61.82c.88.51-.06,1.6-.3,2.22a14.88,14.88,0,0,0-.73,2.77c-.29,1.76-.33,3.54-.49,5.32a3.39,3.39,0,0,1-.73,2.13A2.87,2.87,0,0,1,38.5,75a8.59,8.59,0,0,1-3.67-.23A3.05,3.05,0,0,1,33,73.51a3.91,3.91,0,0,1-.36-1.83c-.13-1.85-.08-2.15-.15-2.88a12.73,12.73,0,0,0-.82-3.26c-.28-.73-1.86-3.1-.54-3.63" transform="translate(-5.21 -16.01)"/><path class="cls-23" d="M7.56,46.09a16.79,16.79,0,0,1,1.67,1.36,37.05,37.05,0,0,1,5.53,6.2,15.42,15.42,0,0,0,2.36,2.91A11.94,11.94,0,0,0,19.3,58a11.77,11.77,0,0,0,5.84,1.89l.74.1c-.62-3.18-2.73-5.83-4.78-8.33a18.32,18.32,0,0,0-5.2-4.89c-2.73-1.46-6-1.45-9.07-1Z" transform="translate(-5.21 -16.01)"/><path class="cls-23" d="M18.32,34.53c1.74,4.56,1.64,9.66,3.41,14.2a18.58,18.58,0,0,0,2.53,4.49c.95,1.24,2.25,2.44,3.81,2.43l.43-.09A25.13,25.13,0,0,0,23.13,39a40.28,40.28,0,0,0-4.89-5Z" transform="translate(-5.21 -16.01)"/><path class="cls-23" d="M78.66,19.65l-.48,6a24.47,24.47,0,0,1-.91,5.72A8.3,8.3,0,0,1,73.92,36,12.15,12.15,0,0,1,71,37.1l-2,.6-.27.23a22,22,0,0,1,5.25-14,43.43,43.43,0,0,1,3.53-3.52l1.44-1.33Z" transform="translate(-5.21 -16.01)"/><path class="cls-23" d="M92.08,42.5,89.51,43l-4.24.89a31.58,31.58,0,0,1-6.76.9,10.39,10.39,0,0,1-6.38-2C71.17,42,70.25,41,69,41l.25-.28A18.36,18.36,0,0,1,86.42,38.6a17.14,17.14,0,0,1,6.52,4.53Z" transform="translate(-5.21 -16.01)"/><path class="cls-9" d="M89.25,47.62" transform="translate(-5.21 -16.01)"/><path class="cls-23" d="M69.33,40.85a12.91,12.91,0,0,0-6.09,2.6" transform="translate(-5.21 -16.01)"/><path class="cls-23" d="M69,37.91c-.32.6-.59,1.3-1,1.88a14.86,14.86,0,0,1-1.49,1.7" transform="translate(-5.21 -16.01)"/><path class="cls-23" d="M25.85,59.72a22.87,22.87,0,0,0,4.61,2.11" transform="translate(-5.21 -16.01)"/><path class="cls-23" d="M28.26,55.54A9,9,0,0,1,28.91,58,10.69,10.69,0,0,0,30,61.6" transform="translate(-5.21 -16.01)"/><path class="cls-23" d="M60.94,26.87a1.65,1.65,0,0,1-.6.46,2.08,2.08,0,0,1-1.09.22" transform="translate(-5.21 -16.01)"/><path class="cls-23" d="M61.81,23.45a5.26,5.26,0,0,1-1.33.56,7.15,7.15,0,0,1-2.23.26" transform="translate(-5.21 -16.01)"/><path class="cls-23" d="M61.4,36.75a2.09,2.09,0,0,1-.76.71,2.44,2.44,0,0,1-1.47.3" transform="translate(-5.21 -16.01)"/><path class="cls-23" d="M60.61,30.4a2.55,2.55,0,0,1-.87.5,3.54,3.54,0,0,1-1.51.2" transform="translate(-5.21 -16.01)"/><path class="cls-23" d="M60.9,33.31a1.62,1.62,0,0,1-.52.57,1.91,1.91,0,0,1-1.07.32" transform="translate(-5.21 -16.01)"/><path class="cls-23" d="M62.26,40.13a1.62,1.62,0,0,1-.52.56,2,2,0,0,1-1.08.3" transform="translate(-5.21 -16.01)"/><path class="cls-23" d="M61.7,50.54a2.13,2.13,0,0,1-.67.53,2.82,2.82,0,0,1-1.25.31" transform="translate(-5.21 -16.01)"/><path class="cls-23" d="M62.35,47a4.77,4.77,0,0,1-1.33.8,6.9,6.9,0,0,1-2.32.53" transform="translate(-5.21 -16.01)"/><path class="cls-23" d="M62.07,59.92a3.6,3.6,0,0,1-1,.48,5.56,5.56,0,0,1-1.65.29" transform="translate(-5.21 -16.01)"/><path class="cls-23" d="M61.3,53.79a3,3,0,0,1-.89.46,4,4,0,0,1-1.5.19" transform="translate(-5.21 -16.01)"/><path class="cls-23" d="M61.74,56.7a1.6,1.6,0,0,1-.58.5,2,2,0,0,1-1.11.18" transform="translate(-5.21 -16.01)"/><path class="cls-23" d="M62.6,62.5a1.65,1.65,0,0,1-.51.58,1.87,1.87,0,0,1-1.07.33" transform="translate(-5.21 -16.01)"/><path class="cls-23" d="M63.22,65.81a3.16,3.16,0,0,1-1,.73,4.3,4.3,0,0,1-1.84.38" transform="translate(-5.21 -16.01)"/><path class="cls-23" d="M61.75,78.84a1.72,1.72,0,0,1-.51.38,2.28,2.28,0,0,1-.93.27" transform="translate(-5.21 -16.01)"/><path class="cls-23" d="M62,75.81a2.78,2.78,0,0,1-.9.54,4.16,4.16,0,0,1-1.58.28" transform="translate(-5.21 -16.01)"/><path class="cls-23" d="M41.81,64.89a2.84,2.84,0,0,1-.86.6,4.11,4.11,0,0,1-1.56.4" transform="translate(-5.21 -16.01)"/><path class="cls-23" d="M41.25,71.94a6.45,6.45,0,0,1-.69.23,10.5,10.5,0,0,1-1.12.27" transform="translate(-5.21 -16.01)"/><path class="cls-23" d="M62.77,72.6A3.47,3.47,0,0,1,62,73a6.5,6.5,0,0,1-1.32.4" transform="translate(-5.21 -16.01)"/><path class="cls-23" d="M41.77,47.43a2.13,2.13,0,0,1-.62.44,2.63,2.63,0,0,1-1.13.24" transform="translate(-5.21 -16.01)"/><path class="cls-23" d="M42.38,43.69a4.05,4.05,0,0,1-1.32.67,6.23,6.23,0,0,1-2.24.3" transform="translate(-5.21 -16.01)"/><path class="cls-23" d="M42.22,58.54a3.2,3.2,0,0,1-1,.58,4.54,4.54,0,0,1-1.76.29" transform="translate(-5.21 -16.01)"/><path class="cls-23" d="M41.53,51.27a2.55,2.55,0,0,1-.87.5,3.5,3.5,0,0,1-1.5.2" transform="translate(-5.21 -16.01)"/><path class="cls-23" d="M41.93,55a1.5,1.5,0,0,1-.56.44,2,2,0,0,1-1,.2" transform="translate(-5.21 -16.01)"/><path class="cls-23" d="M41,68.65a4.07,4.07,0,0,1-1.07.47,5.79,5.79,0,0,1-1.79.22" transform="translate(-5.21 -16.01)"/></g></g></svg>